<svg width="42" height="42" viewBox="0 0 42 42" fill="none" xmlns="http://www.w3.org/2000/svg">
<path d="M17.0625 5.25H3.9375C2.48719 5.25 1.3125 6.42469 1.3125 7.875V30.1875C1.3125 31.6378 2.48719 32.8125 3.9375 32.8125H4.06875H4.06941C4.67775 29.8174 7.32506 27.5625 10.5 27.5625C12.6453 27.5625 14.5438 28.5961 15.7415 30.1882L15.7434 30.1875H19.6875V24.4978V7.875C19.6875 6.42469 18.5128 5.25 17.0625 5.25Z" fill="#969FAA"/>
<path d="M17.0625 17.7188V19.0312C17.0625 19.3922 16.7672 19.6875 16.4062 19.6875H15.0938C14.7328 19.6875 14.4375 19.3922 14.4375 19.0312V17.7188C14.4375 17.3578 14.7328 17.0625 15.0938 17.0625H16.4062C16.7672 17.0625 17.0625 17.3578 17.0625 17.7188Z" fill="#E6E9ED"/>
<path d="M17.0625 22.9688V24.2812C17.0625 24.6422 16.7672 24.9375 16.4062 24.9375H15.0938C14.7328 24.9375 14.4375 24.6422 14.4375 24.2812V22.9688C14.4375 22.6078 14.7328 22.3125 15.0938 22.3125H16.4062C16.7672 22.3125 17.0625 22.6078 17.0625 22.9688Z" fill="#E6E9ED"/>
<path d="M11.8125 22.9688V24.2812C11.8125 24.6422 11.5172 24.9375 11.1562 24.9375H9.84375C9.48281 24.9375 9.1875 24.6422 9.1875 24.2812V22.9688C9.1875 22.6078 9.48281 22.3125 9.84375 22.3125H11.1562C11.5172 22.3125 11.8125 22.6078 11.8125 22.9688Z" fill="#E6E9ED"/>
<path d="M11.8125 17.7188V19.0312C11.8125 19.3922 11.5172 19.6875 11.1562 19.6875H9.84375C9.48281 19.6875 9.1875 19.3922 9.1875 19.0312V17.7188C9.1875 17.3578 9.48281 17.0625 9.84375 17.0625H11.1562C11.5172 17.0625 11.8125 17.3578 11.8125 17.7188Z" fill="#E6E9ED"/>
<path d="M6.5625 17.7188V19.0312C6.5625 19.3922 6.26719 19.6875 5.90625 19.6875H4.59375C4.23281 19.6875 3.9375 19.3922 3.9375 19.0312V17.7188C3.9375 17.3578 4.23281 17.0625 4.59375 17.0625H5.90625C6.26719 17.0625 6.5625 17.3578 6.5625 17.7188Z" fill="#E6E9ED"/>
<path d="M6.5625 22.9688V24.2812C6.5625 24.6422 6.26719 24.9375 5.90625 24.9375H4.59375C4.23281 24.9375 3.9375 24.6422 3.9375 24.2812V22.9688C3.9375 22.6078 4.23281 22.3125 4.59375 22.3125H5.90625C6.26719 22.3125 6.5625 22.6078 6.5625 22.9688Z" fill="#E6E9ED"/>
<path d="M6.5625 28.8816C6.06375 29.2491 5.62406 29.6888 5.25656 30.1875H4.59375C4.23281 30.1875 3.9375 29.8922 3.9375 29.5312V28.2188C3.9375 27.8578 4.23281 27.5625 4.59375 27.5625H5.90625C6.26719 27.5625 6.5625 27.8578 6.5625 28.2188V28.8816Z" fill="#E6E9ED"/>
<path d="M17.0625 8.53125V13.7812C17.0625 14.1422 16.7672 14.4375 16.4062 14.4375H4.59375C4.23281 14.4375 3.9375 14.1422 3.9375 13.7812V8.53125C3.9375 8.17031 4.23281 7.875 4.59375 7.875H16.4062C16.7672 7.875 17.0625 8.17031 17.0625 8.53125Z" fill="#69D6F4"/>
<path d="M24.2812 17.7188C25.3706 17.7188 26.25 18.5981 26.25 19.6875C26.25 19.9434 26.1975 20.1928 26.1056 20.4159C25.8234 21.1444 25.1147 21.6562 24.2812 21.6562C23.7497 21.6562 23.2706 21.4462 22.9228 21.1116C22.5488 20.7506 22.3125 20.2453 22.3125 19.6875C22.3125 18.5981 23.1919 17.7188 24.2812 17.7188Z" fill="#FF826E"/>
<path d="M34.125 21C35.5753 21 36.75 22.1747 36.75 23.625C36.75 25.0753 35.5753 26.25 34.125 26.25C32.6747 26.25 31.5 25.0753 31.5 23.625C31.5 23.2838 31.5656 22.9556 31.6903 22.6538C32.0775 21.6825 33.0225 21 34.125 21Z" fill="#FF826E"/>
<path d="M40.1034 33.1734C40.4578 33.3572 40.6875 33.7247 40.6875 34.125C40.6875 34.5253 40.4578 34.8928 40.1034 35.0766L34.125 38.0625L32.8125 36.0938L34.125 34.1184L32.8125 32.1562L34.125 30.1875L40.1034 33.1734Z" fill="#AAB2BD"/>
<path d="M10.5 40.6875C14.1244 40.6875 17.0625 37.7494 17.0625 34.125C17.0625 30.5006 14.1244 27.5625 10.5 27.5625C6.87563 27.5625 3.9375 30.5006 3.9375 34.125C3.9375 37.7494 6.87563 40.6875 10.5 40.6875Z" fill="#FCD770"/>
<path d="M34.125 34.1184L32.8125 36.0937L34.125 38.0625H15.7434C16.5703 36.9665 17.0625 35.6015 17.0625 34.125V34.1184H34.125Z" fill="#69D6F4"/>
<path d="M34.125 30.1875L32.8125 32.1562L34.125 34.1184H17.0625C17.0625 32.6419 16.5703 31.2834 15.7434 30.1875H19.6875H34.125Z" fill="#B4DD7F"/>
<path d="M34.125 14.4375C37.7494 14.4375 40.6875 11.4994 40.6875 7.875C40.6875 4.25063 37.7494 1.3125 34.125 1.3125C30.5006 1.3125 27.5625 4.25063 27.5625 7.875C27.5625 11.4994 30.5006 14.4375 34.125 14.4375Z" fill="#FCD770"/>
<path d="M11.1562 29.5312H9.84375V30.8438C8.75831 30.8438 7.875 31.7271 7.875 32.8125C7.875 33.8979 8.75831 34.7812 9.84375 34.7812H11.1562C11.5178 34.7812 11.8125 35.0753 11.8125 35.4375C11.8125 35.7997 11.5178 36.0938 11.1562 36.0938H9.1875V35.4375H7.875V37.4062H9.84375V38.7188H11.1562V37.4062C12.2417 37.4062 13.125 36.5229 13.125 35.4375C13.125 34.3521 12.2417 33.4688 11.1562 33.4688H9.84375C9.48216 33.4688 9.1875 33.1747 9.1875 32.8125C9.1875 32.4503 9.48216 32.1562 9.84375 32.1562H11.8125V32.8125H13.125V30.8438H11.1562V29.5312Z" fill="black"/>
<path d="M34.7812 12.4688V11.1562C35.8667 11.1562 36.75 10.2729 36.75 9.1875C36.75 8.10206 35.8667 7.21875 34.7812 7.21875H33.4688C33.1072 7.21875 32.8125 6.92409 32.8125 6.5625C32.8125 6.20091 33.1072 5.90625 33.4688 5.90625H35.4375V6.5625H36.75V4.59375H34.7812V3.28125H33.4688V4.59375C32.3833 4.59375 31.5 5.47706 31.5 6.5625C31.5 7.64794 32.3833 8.53125 33.4688 8.53125H34.7812C35.1428 8.53125 35.4375 8.82591 35.4375 9.1875C35.4375 9.54909 35.1428 9.84375 34.7812 9.84375H32.8125V9.1875H31.5V11.1562H33.4688V12.4688H34.7812Z" fill="black"/>
<path d="M40.3942 32.5881L34.2799 29.5312H20.3438V24.7629L23.0094 21.9699C23.3881 22.1813 23.8179 22.3125 24.2812 22.3125C25.1475 22.3125 25.9101 21.8859 26.3885 21.2376L30.9022 23.0436C30.8687 23.2326 30.8438 23.4255 30.8438 23.625C30.8438 25.4343 32.3157 26.9062 34.125 26.9062C35.9343 26.9062 37.4062 25.4343 37.4062 23.625C37.4062 22.0408 36.2768 20.7152 34.7812 20.41V15.0603C38.4549 14.7276 41.3438 11.634 41.3438 7.875C41.3438 3.89484 38.1052 0.65625 34.125 0.65625C30.1448 0.65625 26.9062 3.89484 26.9062 7.875C26.9062 11.634 29.7951 14.7276 33.4688 15.0603V20.41C32.6012 20.5866 31.8596 21.1083 31.3878 21.8236L26.8728 20.0176C26.8866 19.908 26.9062 19.8004 26.9062 19.6875C26.9062 18.2398 25.7289 17.0625 24.2812 17.0625C22.8336 17.0625 21.6562 18.2398 21.6562 19.6875C21.6562 20.1948 21.8072 20.6647 22.0579 21.0663L20.3438 22.8618V7.875C20.3438 6.06572 18.8718 4.59375 17.0625 4.59375H3.9375C2.12822 4.59375 0.65625 6.06572 0.65625 7.875V30.1875C0.65625 31.7842 1.80403 33.115 3.31734 33.4057C3.29437 33.6427 3.28125 33.8822 3.28125 34.125C3.28125 38.1052 6.51984 41.3438 10.5 41.3438C12.7365 41.3438 14.7387 40.3207 16.0643 38.7188H34.2799L40.3942 35.6619C40.9795 35.3686 41.3438 34.7799 41.3438 34.125C41.3438 33.4701 40.9795 32.8814 40.3942 32.5881V32.5881ZM28.2188 7.875C28.2188 4.61869 30.8687 1.96875 34.125 1.96875C37.3813 1.96875 40.0312 4.61869 40.0312 7.875C40.0312 11.1313 37.3813 13.7812 34.125 13.7812C30.8687 13.7812 28.2188 11.1313 28.2188 7.875ZM34.125 21.6562C35.2104 21.6562 36.0938 22.5396 36.0938 23.625C36.0938 24.7104 35.2104 25.5938 34.125 25.5938C33.0396 25.5938 32.1562 24.7104 32.1562 23.625C32.1562 22.5396 33.0396 21.6562 34.125 21.6562ZM24.2812 18.375C25.0051 18.375 25.5938 18.9637 25.5938 19.6875C25.5938 20.4113 25.0051 21 24.2812 21C23.5574 21 22.9688 20.4113 22.9688 19.6875C22.9688 18.9637 23.5574 18.375 24.2812 18.375ZM17.6853 33.4655C17.6 32.5277 17.3322 31.6437 16.9221 30.8438H32.8978L32.023 32.1543L32.8978 33.4655H17.6853ZM19.0312 29.5312H16.0643C16.0223 29.4807 15.9751 29.4348 15.9318 29.3856L19.0312 26.1378V29.5312ZM1.96875 30.1875V7.875C1.96875 6.78956 2.85206 5.90625 3.9375 5.90625H17.0625C18.1479 5.90625 19.0312 6.78956 19.0312 7.875V24.2373L14.9835 28.478C13.7504 27.4969 12.1944 26.9062 10.5 26.9062C9.282 26.9062 8.13488 27.2121 7.12753 27.7469C6.93722 27.2567 6.46341 26.9062 5.90625 26.9062H4.59375C3.86991 26.9062 3.28125 27.4949 3.28125 28.2188V29.5312C3.28125 30.0884 3.63169 30.5622 4.12191 30.7525C3.89288 31.1837 3.70912 31.6418 3.57066 32.1195C2.66044 31.9463 1.96875 31.1476 1.96875 30.1875V30.1875ZM4.93566 29.5312H4.59375V28.2188H5.90625V28.5607C5.55319 28.8533 5.22834 29.1782 4.93566 29.5312ZM10.5 40.0312C7.24369 40.0312 4.59375 37.382 4.59375 34.125C4.59375 30.868 7.24369 28.2188 10.5 28.2188C13.7563 28.2188 16.4062 30.868 16.4062 34.125C16.4062 37.382 13.7563 40.0312 10.5 40.0312ZM17.6859 34.778H32.8991L32.0237 36.0918L32.8991 37.4062H16.9221C17.3335 36.6043 17.6006 35.7177 17.6859 34.778ZM39.8068 34.4879L34.3501 37.2166L33.6013 36.0924L34.9138 34.1224L33.6013 32.1549L34.3494 31.0341L39.8068 33.7628C39.9453 33.8317 40.0312 33.9708 40.0312 34.125C40.0312 34.2792 39.9453 34.4183 39.8068 34.4879V34.4879Z" fill="black"/>
<path d="M4.59375 15.0938H16.4062C17.1301 15.0938 17.7188 14.5051 17.7188 13.7812V8.53125C17.7188 7.80741 17.1301 7.21875 16.4062 7.21875H4.59375C3.86991 7.21875 3.28125 7.80741 3.28125 8.53125V13.7812C3.28125 14.5051 3.86991 15.0938 4.59375 15.0938ZM4.59375 8.53125H16.4062L16.4069 13.7812H4.59375V8.53125Z" fill="black"/>
<path d="M4.59375 20.3438H5.90625C6.63009 20.3438 7.21875 19.7551 7.21875 19.0312V17.7188C7.21875 16.9949 6.63009 16.4062 5.90625 16.4062H4.59375C3.86991 16.4062 3.28125 16.9949 3.28125 17.7188V19.0312C3.28125 19.7551 3.86991 20.3438 4.59375 20.3438ZM4.59375 17.7188H5.90625L5.90691 19.0312H4.59375V17.7188Z" fill="black"/>
<path d="M11.1562 16.4062H9.84375C9.11991 16.4062 8.53125 16.9949 8.53125 17.7188V19.0312C8.53125 19.7551 9.11991 20.3438 9.84375 20.3438H11.1562C11.8801 20.3438 12.4688 19.7551 12.4688 19.0312V17.7188C12.4688 16.9949 11.8801 16.4062 11.1562 16.4062ZM9.84375 19.0312V17.7188H11.1562L11.1569 19.0312H9.84375Z" fill="black"/>
<path d="M16.4062 16.4062H15.0938C14.3699 16.4062 13.7812 16.9949 13.7812 17.7188V19.0312C13.7812 19.7551 14.3699 20.3438 15.0938 20.3438H16.4062C17.1301 20.3438 17.7188 19.7551 17.7188 19.0312V17.7188C17.7188 16.9949 17.1301 16.4062 16.4062 16.4062ZM15.0938 19.0312V17.7188H16.4062L16.4069 19.0312H15.0938Z" fill="black"/>
<path d="M4.59375 25.5938H5.90625C6.63009 25.5938 7.21875 25.0051 7.21875 24.2812V22.9688C7.21875 22.2449 6.63009 21.6562 5.90625 21.6562H4.59375C3.86991 21.6562 3.28125 22.2449 3.28125 22.9688V24.2812C3.28125 25.0051 3.86991 25.5938 4.59375 25.5938ZM4.59375 22.9688H5.90625L5.90691 24.2812H4.59375V22.9688Z" fill="black"/>
<path d="M11.1562 21.6562H9.84375C9.11991 21.6562 8.53125 22.2449 8.53125 22.9688V24.2812C8.53125 25.0051 9.11991 25.5938 9.84375 25.5938H11.1562C11.8801 25.5938 12.4688 25.0051 12.4688 24.2812V22.9688C12.4688 22.2449 11.8801 21.6562 11.1562 21.6562ZM9.84375 24.2812V22.9688H11.1562L11.1569 24.2812H9.84375Z" fill="black"/>
<path d="M16.4062 21.6562H15.0938C14.3699 21.6562 13.7812 22.2449 13.7812 22.9688V24.2812C13.7812 25.0051 14.3699 25.5938 15.0938 25.5938H16.4062C17.1301 25.5938 17.7188 25.0051 17.7188 24.2812V22.9688C17.7188 22.2449 17.1301 21.6562 16.4062 21.6562ZM15.0938 24.2812V22.9688H16.4062L16.4069 24.2812H15.0938Z" fill="black"/>
</svg>
