<svg width="11" height="9" viewBox="0 0 11 9" fill="none" xmlns="http://www.w3.org/2000/svg">
<path fill-rule="evenodd" clip-rule="evenodd" d="M5.1825 0.183495C5.24056 0.125291 5.30953 0.079112 5.38546 0.047604C5.46139 0.0160959 5.54279 -0.00012207 5.625 -0.00012207C5.70721 -0.00012207 5.78861 0.0160959 5.86454 0.047604C5.94048 0.079112 6.00945 0.125291 6.0675 0.183495L9.8175 3.93349C9.87571 3.99155 9.92188 4.06052 9.95339 4.13645C9.9849 4.21238 10.0011 4.29379 10.0011 4.37599C10.0011 4.4582 9.9849 4.5396 9.95339 4.61554C9.92188 4.69147 9.87571 4.76044 9.8175 4.81849L6.0675 8.56849C5.95014 8.68585 5.79097 8.75178 5.625 8.75178C5.45903 8.75178 5.29986 8.68585 5.1825 8.56849C5.06514 8.45114 4.99921 8.29196 4.99921 8.12599C4.99921 7.96002 5.06514 7.80085 5.1825 7.68349L8.49125 4.37599L5.1825 1.06849C5.1243 1.01044 5.07812 0.941468 5.04661 0.865537C5.0151 0.789606 4.99889 0.708204 4.99889 0.625995C4.99889 0.543786 5.0151 0.462384 5.04661 0.386453C5.07812 0.310521 5.1243 0.241552 5.1825 0.183495Z" fill="white"/>
<path fill-rule="evenodd" clip-rule="evenodd" d="M0 4.37598C0 4.21022 0.0658481 4.05125 0.183058 3.93403C0.300269 3.81682 0.45924 3.75098 0.625 3.75098H8.75C8.91576 3.75098 9.07473 3.81682 9.19194 3.93403C9.30915 4.05125 9.375 4.21022 9.375 4.37598C9.375 4.54174 9.30915 4.70071 9.19194 4.81792C9.07473 4.93513 8.91576 5.00098 8.75 5.00098H0.625C0.45924 5.00098 0.300269 4.93513 0.183058 4.81792C0.0658481 4.70071 0 4.54174 0 4.37598Z" fill="white"/>
</svg>
