<svg width="98" height="62" viewBox="0 0 98 62" fill="none" xmlns="http://www.w3.org/2000/svg">
<path fill-rule="evenodd" clip-rule="evenodd" d="M90.65 6.27109e-07C85.75 1.0952e-06 33.8717 -9.93974e-07 4.9 6.27109e-07C2.45 7.64197e-07 0 2.48 0 4.96V54.56C-2.83587e-07 59.52 2.45 62 7.35 62C34.6817 62 85.75 62 90.65 62C95.55 62 98 59.52 98 54.56V7.44C98 2.48 95.55 6.27109e-07 90.65 6.27109e-07Z" fill="#9A9A9A"/>
<path fill-rule="evenodd" clip-rule="evenodd" d="M23.9447 32.6659C22.6698 37.8985 17.4905 41.0829 12.3762 39.7781C7.26399 38.4735 4.15187 33.1735 5.42738 27.9412C6.7017 22.708 11.881 19.5233 16.9938 20.8278C22.1078 22.1324 25.2196 27.433 23.9447 32.6659C25.2196 27.433 23.9447 32.6659 23.9447 32.6659ZM18.893 28.9115C19.0831 27.6119 18.116 26.9132 16.7936 26.4471L17.2226 24.6865L16.1753 24.4195L15.7577 26.1336C15.4823 26.0634 15.1995 25.9972 14.9185 25.9316L15.3391 24.2061L14.2924 23.939L13.8632 25.699C13.6353 25.6459 13.4116 25.5934 13.1944 25.5381L13.1956 25.5326L11.7512 25.1636L11.4726 26.3082C11.4726 26.3082 12.2497 26.4905 12.2333 26.5017C12.6575 26.6101 12.7341 26.8973 12.7213 27.125L12.2327 29.1307C12.2619 29.1383 12.2998 29.1493 12.3416 29.1664C12.3067 29.1576 12.2694 29.1478 12.2309 29.1383L11.546 31.948C11.4941 32.0798 11.3626 32.2776 11.0661 32.2025C11.0765 32.2181 10.3048 32.0081 10.3048 32.0081L9.78488 33.2348L11.1478 33.5825C11.4013 33.6475 11.6498 33.7156 11.8944 33.7797L11.461 35.5604L12.5071 35.8275L12.9364 34.0657C13.2221 34.145 13.4996 34.2183 13.771 34.2873L13.3432 36.0408L14.3906 36.3079L14.824 34.5305C16.6099 34.8764 17.9528 34.7369 18.5181 33.0841C18.9736 31.7532 18.4954 30.9856 17.5558 30.485C18.2401 30.3235 18.7555 29.8629 18.893 28.9115C18.7555 29.8629 18.893 28.9115 18.893 28.9115ZM16.5001 32.3451C16.1765 33.6759 13.9867 32.9565 13.2767 32.7761L13.8518 30.4169C14.5618 30.5983 16.8384 30.9572 16.5001 32.3451C16.8384 30.9572 16.5001 32.3451 16.5001 32.3451ZM16.8241 28.8923C16.5287 30.1029 14.7062 29.4878 14.1149 29.337L14.6364 27.1974C15.2276 27.3482 17.1316 27.6296 16.8241 28.8923C17.1316 27.6296 16.8241 28.8923 16.8241 28.8923Z" fill="white"/>
<path fill-rule="evenodd" clip-rule="evenodd" d="M32.5006 26.4465C33.2746 26.4465 33.9434 26.5884 34.5054 26.8671C35.0701 27.1485 35.536 27.5276 35.9098 28.0044C36.2785 28.4836 36.5529 29.0437 36.7301 29.6856C36.9061 30.3293 36.9944 31.0213 36.9944 31.7621C36.9944 32.9 36.7906 33.975 36.3793 34.9884C35.9679 36.0033 35.4098 36.8836 34.6999 37.6344C33.9905 38.3844 33.1529 38.9756 32.187 39.4124C31.2227 39.8495 30.1742 40.068 29.0484 40.068C28.9028 40.068 28.6469 40.0638 28.2853 40.0561C27.9238 40.0485 27.5083 40.0103 27.0429 39.9459C26.5746 39.8791 26.0794 39.7802 25.5565 39.6477C25.0339 39.5177 24.5376 39.3355 24.0701 39.1041L28.2498 21.1333L31.9935 20.5397L30.4969 26.9169C30.8173 26.7691 31.14 26.6547 31.4622 26.5713C31.7846 26.4892 32.1307 26.4465 32.5006 26.4465C32.1307 26.4465 32.5006 26.4465 32.5006 26.4465ZM29.3604 37.0292C29.9242 37.0292 30.4554 36.8872 30.9545 36.6086C31.455 36.3296 31.887 35.9529 32.2488 35.4838C32.6106 35.0125 32.897 34.4817 33.1058 33.8886C33.3146 33.2956 33.4202 32.6769 33.4202 32.0331C33.4202 31.2423 33.291 30.6254 33.0336 30.1795C32.7762 29.7354 32.2998 29.5119 31.6081 29.5119C31.3814 29.5119 31.0893 29.5562 30.7272 29.6352C30.3639 29.7192 30.0387 29.8935 29.7473 30.1557L28.1538 36.9281C28.2498 36.9455 28.3349 36.962 28.4073 36.9776C28.4783 36.9944 28.5568 37.0063 28.6349 37.0145C28.7176 37.024 28.8121 37.0289 28.9264 37.0289C29.0406 37.0289 29.1835 37.0292 29.3604 37.0292C29.1835 37.0292 29.3604 37.0292 29.3604 37.0292ZM40.2651 39.7225H36.6894L39.7091 26.7206H43.3092L40.2651 39.7225ZM42.005 25.1364C41.506 25.1364 41.0535 24.9844 40.652 24.6798C40.2472 24.377 40.0467 23.9109 40.0467 23.2828C40.0467 22.9373 40.1153 22.6131 40.2514 22.3073C40.3895 22.002 40.5699 21.7392 40.7961 21.5158C41.0219 21.2942 41.2835 21.1172 41.5806 20.9838C41.8795 20.8525 42.1974 20.7869 42.5363 20.7869C43.0351 20.7869 43.4852 20.9389 43.8882 21.2435C44.2897 21.5497 44.4916 22.0158 44.4916 22.6406C44.4916 22.9873 44.4233 23.3127 44.2861 23.6179C44.1498 23.9232 43.9693 24.186 43.7432 24.4094C43.5192 24.6313 43.2552 24.8077 42.9587 24.9399C42.6595 25.0733 42.3427 25.1364 42.005 25.1364ZM45.8297 23.4818L49.5748 22.8881L48.6551 26.7206H52.666L51.9418 29.7357H47.955L46.8931 34.2836C46.7953 34.6627 46.7398 35.0168 46.7243 35.3458C46.7067 35.6764 46.7475 35.9602 46.8442 36.1992C46.9402 36.4388 47.113 36.6235 47.3635 36.7541C47.6129 36.8869 47.97 36.9538 48.4383 36.9538C48.824 36.9538 49.1998 36.9162 49.5632 36.8417C49.9244 36.7685 50.2904 36.6665 50.6609 36.5332L50.9276 39.3523C50.4443 39.5336 49.9211 39.6895 49.3573 39.8208C48.7927 39.9539 48.1242 40.018 47.3516 40.018C46.2407 40.018 45.3796 39.8492 44.766 39.5131C44.1533 39.1746 43.7201 38.7122 43.4609 38.1268C43.2053 37.5435 43.091 36.8711 43.123 36.1135C43.1561 35.3541 43.2679 34.5559 43.4609 33.7153L45.8297 23.4818ZM52.5082 34.5321C52.5082 33.4122 52.6854 32.3561 53.0395 31.3674C53.393 30.3779 53.9022 29.5125 54.5629 28.7699C55.2212 28.031 56.0233 27.4455 56.9674 27.0158C57.9071 26.5884 58.9592 26.3729 60.1186 26.3729C60.8444 26.3729 61.4926 26.4431 62.0629 26.5839C62.6357 26.7258 63.1538 26.9092 63.6224 27.1394L62.3893 30.0085C62.0671 29.8749 61.7327 29.757 61.387 29.6502C61.041 29.5412 60.6186 29.4887 60.1189 29.4887C58.9255 29.4887 57.9819 29.9096 57.2798 30.7487C56.5803 31.5884 56.228 32.7187 56.228 34.1365C56.228 34.9768 56.4052 35.6562 56.7607 36.176C57.1145 36.6958 57.7681 36.9544 58.7169 36.9544C59.1853 36.9544 59.6372 36.9043 60.07 36.8066C60.5061 36.7078 60.8912 36.5832 61.2304 36.4361L61.4974 39.3773C61.0451 39.5568 60.5464 39.7189 59.9993 39.8608C59.4511 39.9978 58.7984 40.069 58.0416 40.069C57.0426 40.069 56.1969 39.9194 55.5052 39.6248C54.8132 39.3257 54.2413 38.9286 53.7909 38.4256C53.3381 37.9213 53.0129 37.3326 52.8119 36.6568C52.6108 35.9816 52.5082 35.2723 52.5082 34.5321C52.5082 35.2723 52.5082 34.5321 52.5082 34.5321ZM67.7794 40.0683C66.9259 40.0683 66.1847 39.9353 65.5559 39.6718C64.9288 39.4084 64.4095 39.0388 63.9988 38.5596C63.5874 38.0828 63.2796 37.5178 63.0687 36.8668C62.8578 36.216 62.7564 35.4954 62.7564 34.7057C62.7564 33.7153 62.9118 32.7251 63.2259 31.7377C63.5385 30.7481 64.0023 29.859 64.6162 29.0687C65.2254 28.2773 65.9768 27.6302 66.8615 27.1256C67.7454 26.6245 68.7619 26.3723 69.9038 26.3723C70.7417 26.3723 71.4791 26.5057 72.1166 26.7691C72.7511 27.0319 73.2737 27.4046 73.6868 27.8814C74.0955 28.3606 74.406 28.9231 74.6148 29.5751C74.8251 30.2246 74.9289 30.9471 74.9289 31.7374C74.9289 32.7248 74.7756 33.715 74.4713 34.7054C74.1668 35.691 73.7148 36.5823 73.1183 37.3744C72.5229 38.1646 71.7783 38.8114 70.884 39.3138C69.9909 39.8162 68.9552 40.0683 67.7794 40.0683ZM69.5665 29.4884C69.0364 29.4884 68.5678 29.6459 68.1666 29.957C67.7639 30.2717 67.4256 30.6672 67.1529 31.1443C66.8773 31.6235 66.673 32.1461 66.5349 32.7141C66.398 33.2834 66.3308 33.8215 66.3308 34.3328C66.3308 35.1578 66.4609 35.8003 66.7165 36.2627C66.9758 36.7227 67.4414 36.9541 68.1182 36.9541C68.6501 36.9541 69.1163 36.7978 69.5199 36.4834C69.9202 36.1712 70.2588 35.7753 70.5335 35.2973C70.8074 34.8205 71.0135 34.2964 71.1516 33.7275C71.2867 33.1601 71.3556 32.6189 71.3556 32.1085C71.3556 31.2856 71.2262 30.6416 70.9681 30.1798C70.7104 29.7198 70.2427 29.4884 69.5665 29.4884ZM78.2139 39.7225H74.6353L77.6549 26.7206H81.2569L78.2139 39.7225ZM79.9512 25.1364C79.4525 25.1364 79.0002 24.9844 78.5993 24.6798C78.1966 24.377 77.9944 23.9109 77.9944 23.2828C77.9944 22.9373 78.0639 22.6131 78.2002 22.3073C78.3365 22.002 78.5182 21.7392 78.7443 21.5158C78.9689 21.2942 79.2329 21.1172 79.5294 20.9838C79.8265 20.8525 80.1445 20.7869 80.4822 20.7869C80.9821 20.7869 81.4337 20.9389 81.8358 21.2435C82.2382 21.5497 82.4414 22.0158 82.4414 22.6406C82.4414 22.9873 82.3692 23.3127 82.2341 23.6179C82.0989 23.9232 81.9173 24.186 81.6921 24.4094C81.4654 24.6313 81.2046 24.8077 80.9075 24.9399C80.6081 25.0733 80.2907 25.1364 79.9512 25.1364ZM82.6073 27.3131C82.8788 27.2319 83.1818 27.1342 83.5115 27.028C83.8423 26.9217 84.2119 26.8229 84.6247 26.7337C85.0331 26.6418 85.4939 26.5674 86.0007 26.5097C86.5075 26.4508 87.085 26.4221 87.7267 26.4221C89.6125 26.4221 90.9125 26.984 91.6302 28.1045C92.3473 29.225 92.4714 30.7585 92.006 32.7022L90.3612 39.7225H86.762L88.3561 32.8499C88.4533 32.4208 88.5297 32.006 88.5861 31.6006C88.643 31.1989 88.6398 30.8449 88.5732 30.5384C88.5097 30.2356 88.36 29.9878 88.1276 29.7958C87.8916 29.6069 87.5352 29.5119 87.0516 29.5119C86.5854 29.5119 86.1111 29.5632 85.627 29.6621L83.2833 39.7222H79.6825L82.6073 27.3131Z" fill="#FDFDFD"/>
</svg>
