<svg width="33" height="32" viewBox="0 0 33 32" fill="none" xmlns="http://www.w3.org/2000/svg">
<path d="M5.83335 7.99996H3.16669V26.6666C3.16669 28.1333 4.36669 29.3333 5.83335 29.3333H24.5V26.6666H5.83335V7.99996ZM27.1667 2.66663H11.1667C9.70002 2.66663 8.50002 3.86663 8.50002 5.33329V21.3333C8.50002 22.8 9.70002 24 11.1667 24H27.1667C28.6334 24 29.8334 22.8 29.8334 21.3333V5.33329C29.8334 3.86663 28.6334 2.66663 27.1667 2.66663ZM25.8334 14.6666H12.5V12H25.8334V14.6666ZM20.5 20H12.5V17.3333H20.5V20ZM25.8334 9.33329H12.5V6.66663H25.8334V9.33329Z" fill="#2945FF"/>
</svg>
