<svg width="86" height="86" viewBox="0 0 86 86" fill="none" xmlns="http://www.w3.org/2000/svg">
<path d="M78.8333 10.75H7.16667C3.2159 10.75 0 13.9642 0 17.9167V68.0833C0 72.0358 3.2159 75.25 7.16667 75.25H78.8333C82.7841 75.25 86 72.0358 86 68.0833V17.9167C86 13.9642 82.7841 10.75 78.8333 10.75ZM78.1407 43.856C77.6326 44.5025 76.9004 44.934 75.9652 45.1342L75.5407 45.226L77.4001 50.1667H73.3415L71.5453 44.12L70.4373 50.1667H32.1804L33.9487 40.5885H31.6737L29.9063 50.1667H15.3672L12.6812 42.369L11.2976 50.1667H7.24125L9.52741 37.7818H13.7752L16.5427 45.3712L17.932 37.7823H42.3377L41.8273 40.5887H37.9279L37.529 42.7564L41.2851 42.7599L40.842 45.186H37.0802L36.6859 47.3587H42.946L44.7142 37.7823H48.8054L47.1174 46.867H49.9182L51.5927 37.7823H55.688L54.0015 46.867H56.874L58.5483 37.7823H66.3822L65.8691 40.5887H62.0126L61.6117 42.7522L65.3543 42.7454L64.9092 45.1858H61.1642L60.7658 47.3584H66.9817L68.7454 37.7818H73.4905C75.3023 37.7818 76.6841 38.0972 77.5974 38.7234C78.4803 39.3257 78.9083 40.1874 78.9079 41.3595C78.9079 42.3657 78.6496 43.2034 78.1407 43.856Z" fill="#BFBFBF"/>
<path d="M72.8462 40.2871H72.568H72.2561L71.6406 43.6111H72.0921H72.4433C73.2525 43.6111 73.8439 43.4706 74.2516 43.1865C74.56 42.9718 74.9241 42.5529 74.9241 41.7739C74.9241 41.1274 74.6112 40.7869 74.3467 40.6147C74.0086 40.3952 73.518 40.2871 72.8462 40.2871Z" fill="#BFBFBF"/>
<path d="M21.0451 42.7384H24.9033L24.4607 45.1856H20.565L20.1635 47.358H26.3746L27.6182 40.5881H21.418L21.0451 42.7384Z" fill="#BFBFBF"/>
</svg>
