<svg width="96" height="60" viewBox="0 0 96 60" fill="none" xmlns="http://www.w3.org/2000/svg">
<path fill-rule="evenodd" clip-rule="evenodd" d="M88.8 6.0688e-07C84 1.05987e-06 33.1805 -9.6191e-07 4.8 6.0688e-07C2.4 7.39545e-07 0 2.4 0 4.8V52.8C-2.778e-07 57.6 2.4 60 7.2 60C33.9739 60 84 60 88.8 60C93.6 60 96 57.6 96 52.8V7.2C96 2.4 93.6 6.0688e-07 88.8 6.0688e-07Z" fill="#767676"/>
<path fill-rule="evenodd" clip-rule="evenodd" d="M65.7978 23.1427C67.5842 23.1427 69.0321 21.7231 69.0321 19.9722C69.0321 18.221 67.5842 16.8 65.7978 16.8C64.0136 16.8 62.5664 18.221 62.5664 19.9722C62.5664 21.7231 64.0136 23.1427 65.7978 23.1427C64.0136 23.1427 65.7978 23.1427 65.7978 23.1427ZM41.0276 24.8544C40.882 25.2143 39.8316 28.1247 37.2912 31.1411V18.2431L30.5226 19.5557V42.9338H37.2912V35.7074C39.2517 38.5915 40.2197 42.9338 40.2197 42.9338H48.3272C47.5252 39.6638 44.0172 33.6334 44.0172 33.6334C47.1656 29.7178 48.5485 25.5459 48.7684 24.8544H41.0276ZM58.8224 24.6107C52.7598 24.8015 49.6823 27.4696 49.6823 32.7734V42.9338H56.2963V34.6484C56.2963 31.4721 56.7202 30.1108 60.5622 29.9813V24.7037C59.9155 24.5691 58.8224 24.6107 58.8224 24.6107ZM19.1708 27.4287C18.3417 27.3752 16.4223 27.2539 16.4223 25.5589C16.4223 23.5135 19.1857 23.5135 20.2222 23.5135C22.0447 23.5135 24.4051 24.0415 26.0906 24.536C26.0906 24.536 27.0309 24.8612 27.8307 25.1945L27.9054 25.2143V19.6126L27.8033 19.583C25.814 18.9003 23.5009 18.2431 19.2125 18.2431C11.8184 18.2431 9.19849 22.4685 9.19849 26.0885C9.19849 28.1752 10.1099 33.086 18.5784 33.6524C19.2962 33.6957 21.2011 33.8031 21.2011 35.555C21.2011 37.0012 19.6416 37.854 17.0182 37.854C14.1433 37.854 11.3545 37.1348 9.66062 36.4528V42.2221C12.1964 42.8742 15.0551 43.2 18.4053 43.2C25.6351 43.2 28.8731 39.202 28.8731 35.2397C28.8731 30.7471 25.2498 27.8285 19.1708 27.4287C25.2498 27.8285 19.1708 27.4287 19.1708 27.4287ZM62.5191 42.9338H69.0797V24.8748H62.5191V42.9338ZM81.4328 19.3945V42.9338H87.9944V18.2431L81.4328 19.3945ZM71.8587 19.3945L78.414 18.2431V42.9338H71.8587V19.3945Z" fill="white"/>
</svg>
