<svg width="96" height="96" viewBox="0 0 96 96" fill="none" xmlns="http://www.w3.org/2000/svg">
<path d="M95.118 76.086C95.118 77.7675 93.7545 79.1317 92.0723 79.1317H3.66376C1.98226 79.1317 0.618011 77.7682 0.618011 76.086V19.044C0.618011 17.3625 1.98151 15.9982 3.66376 15.9982H92.073C93.7545 15.9982 95.1188 17.3617 95.1188 19.044V76.086H95.118Z" fill="#808080"/>
<path fill-rule="evenodd" clip-rule="evenodd" d="M80.1735 36.9997C82.0995 36.984 83.7645 37.4145 85.3418 38.2252C85.656 38.3865 85.7325 38.4847 85.4295 38.7562C84.7395 39.3765 84.7523 39.3892 84.0893 38.715C83.226 37.8367 83.226 37.8367 82.311 38.652C81.9345 38.9865 81.5235 39.2925 81.192 39.6698C80.8178 40.095 80.5748 40.0057 80.2725 39.6045C80.0235 39.273 79.7055 38.9925 79.4408 38.67C79.2735 38.4653 79.1535 38.4952 78.9803 38.6535C77.5905 39.9187 76.203 41.1855 74.7975 42.4327C74.5238 42.6757 74.685 42.7965 74.8403 42.9668C75.6593 43.869 76.467 44.7795 77.2973 45.6712C77.514 45.9045 77.5155 46.032 77.2733 46.251C76.395 47.0415 76.4048 47.0497 77.187 47.9235C77.826 48.6367 78.4538 49.3597 79.1033 50.0625C79.305 50.28 79.2923 50.406 79.0703 50.6062C78.7823 50.8657 78.2603 51.0585 78.3 51.4387C78.3338 51.7507 78.7478 52.0282 79.002 52.3132C80.0115 53.442 81.0368 54.5565 82.0253 55.7017C82.3208 56.0445 82.4963 56.0145 82.791 55.719C83.3453 55.1662 83.9565 54.672 84.5018 54.111C84.825 53.7788 84.9998 53.841 85.2623 54.1695C85.7288 54.7537 86.2238 55.3185 86.7405 55.8585C87.0375 56.1705 87.0488 56.3317 86.6723 56.6032C82.6005 59.5447 76.9163 59.3153 73.212 55.9448C69.9195 52.9485 68.754 49.1872 69.9488 44.91C71.1518 40.611 74.1308 38.0475 78.5078 37.1422C79.1018 37.0185 79.7123 36.9652 80.1735 36.9997Z" fill="white"/>
<path fill-rule="evenodd" clip-rule="evenodd" d="M9.82349 46.0845C9.32324 47.9625 8.79974 49.785 8.37149 51.63C8.20499 52.347 7.73324 52.0755 7.33724 52.1415C6.91049 52.2143 6.82424 51.969 6.74699 51.6203C6.16799 49.023 5.57624 46.428 4.97474 43.836C4.89449 43.4933 4.89899 43.3448 5.32349 43.3493C6.27899 43.3583 6.27449 43.3373 6.47174 44.2733C6.85124 46.0763 7.23749 47.8778 7.62899 49.7168C7.88024 49.5495 7.85399 49.3005 7.90349 49.1033C8.34224 47.3483 8.77799 45.5925 9.18524 43.8308C9.27449 43.4445 9.44924 43.3305 9.82499 43.3508C10.1812 43.371 10.4572 43.3305 10.5765 43.824C11.0107 45.633 11.5095 47.4263 11.985 49.2263C12.0285 49.3905 12.081 49.5533 12.2265 49.7213C12.378 48.9615 12.5347 48.2048 12.6817 47.4435C12.9105 46.266 13.1482 45.0893 13.347 43.9058C13.4167 43.4888 13.5592 43.3275 14.01 43.3455C14.9317 43.3838 14.9332 43.3545 14.7202 44.2913C14.1645 46.7333 13.5967 49.173 13.062 51.6195C12.9742 52.0193 12.8272 52.1648 12.4155 52.1468C11.3932 52.1033 11.6355 52.278 11.3685 51.3255C10.9252 49.752 10.5127 48.1703 10.0777 46.5945C10.0335 46.437 10.044 46.2443 9.82349 46.0845Z" fill="white"/>
<path fill-rule="evenodd" clip-rule="evenodd" d="M32.6535 50.1645C33.4642 48.0458 34.2562 45.9668 35.0587 43.8923C35.1337 43.6988 35.1105 43.3935 35.412 43.3755C35.844 43.35 36.2835 43.305 36.7102 43.41C36.8512 43.4453 36.8092 43.6178 36.8092 43.7333C36.8115 46.3973 36.8077 49.0613 36.8145 51.7253C36.8152 52.0388 36.7035 52.152 36.3855 52.1438C35.31 52.1183 35.4555 52.2623 35.4495 51.246C35.4412 49.6785 35.4495 48.111 35.4442 46.5435C35.4435 46.3628 35.5012 46.1678 35.3302 45.93C35.1322 46.4153 34.9492 46.8548 34.7737 47.2973C34.1962 48.7515 33.6172 50.2058 33.0495 51.666C32.9362 51.96 32.8252 52.1565 32.436 52.1565C32.0587 52.1558 31.9665 51.945 31.8592 51.681C31.1692 49.9718 30.4785 48.264 29.7832 46.5563C29.7142 46.3875 29.6962 46.1865 29.472 46.0343C29.4615 46.2345 29.4442 46.3973 29.4442 46.56C29.442 48.249 29.4232 49.9373 29.4555 51.627C29.4645 52.1115 29.2575 52.143 28.8705 52.1498C28.4565 52.158 28.2945 52.0628 28.2975 51.606C28.32 49.0118 28.3147 46.4175 28.3005 43.8233C28.299 43.4573 28.4077 43.3515 28.7692 43.35C29.826 43.344 29.8245 43.329 30.21 44.295C30.9255 46.0875 31.641 47.8793 32.361 49.671C32.4247 49.8285 32.448 50.01 32.6535 50.1645Z" fill="white"/>
<path fill-rule="evenodd" clip-rule="evenodd" d="M22.9642 46.1603C23.3835 46.0358 23.7255 45.909 24.0787 45.8333C25.44 45.543 26.5012 46.2 26.8395 47.5493C27.0727 48.4785 27.0547 49.416 26.7915 50.334C26.3775 51.783 25.1415 52.476 23.4727 52.2345C23.4382 52.2293 23.4045 52.2225 23.37 52.2173C21.6547 51.915 21.6547 51.915 21.6547 50.1968C21.6547 47.9708 21.6532 45.7448 21.6577 43.5188C21.6577 43.3388 21.5767 43.0853 21.8047 43.0095C22.1467 42.8955 22.5082 42.8108 22.8667 42.7875C23.0197 42.777 22.9605 43.0163 22.9612 43.1415C22.9672 44.1323 22.9642 45.1223 22.9642 46.1603ZM22.965 49.14C22.965 49.7145 22.9642 50.289 22.9657 50.8628C22.9665 51.015 22.9545 51.1538 23.1412 51.2505C24.0142 51.702 25.1587 51.267 25.4602 50.3355C25.6882 49.6298 25.7347 48.9015 25.6162 48.1695C25.4145 46.9133 24.6105 46.4738 23.4285 46.944C23.0992 47.0738 22.9245 47.2388 22.9537 47.6273C22.9942 48.1283 22.9642 48.636 22.965 49.14Z" fill="white"/>
<path fill-rule="evenodd" clip-rule="evenodd" d="M54.4927 49.287C53.9535 49.287 53.4142 49.2952 52.875 49.2832C52.5915 49.278 52.5285 49.4002 52.545 49.6657C52.6147 50.76 53.2222 51.3472 54.3202 51.3697C54.9112 51.381 55.461 51.2325 55.9635 50.9392C56.331 50.7247 56.3827 50.8575 56.394 51.213C56.4067 51.5767 56.2987 51.7852 55.95 51.9247C55.1865 52.23 54.4027 52.338 53.5965 52.2405C52.4025 52.0965 51.6337 51.3937 51.3727 50.2155C51.1725 49.3192 51.1695 48.4192 51.4792 47.5425C51.9277 46.2742 53.0677 45.6127 54.4537 45.798C55.629 45.9547 56.3887 46.8067 56.5057 48.1372C56.6205 49.4332 56.6527 49.2802 55.4835 49.284C55.1542 49.2855 54.8235 49.2847 54.4927 49.2847C54.4927 49.2847 54.4927 49.2855 54.4927 49.287ZM53.9947 48.408C54.3427 48.408 54.6907 48.4132 55.038 48.405C55.1625 48.402 55.3132 48.4507 55.3372 48.225C55.3897 47.7277 54.9292 46.9275 54.4515 46.7295C53.9422 46.5187 53.3572 46.683 53.0107 47.1442C52.83 47.3827 52.7212 47.6572 52.6455 47.9467C52.5645 48.2595 52.614 48.444 53.004 48.414C53.3317 48.3877 53.6647 48.4087 53.9947 48.408Z" fill="white"/>
<path fill-rule="evenodd" clip-rule="evenodd" d="M20.3107 50.8043C20.4502 51.7313 20.4187 51.7785 19.623 52.05C18.9675 52.272 18.294 52.32 17.6145 52.2383C16.4625 52.101 15.7155 51.4343 15.4207 50.3078C15.1815 49.3943 15.1882 48.4815 15.4882 47.583C15.9045 46.338 16.944 45.6878 18.3315 45.7845C19.503 45.8663 20.2357 46.5795 20.4952 47.8875C20.7637 49.2413 20.7285 49.2848 19.377 49.2855C18.5775 49.2855 17.7765 49.296 16.9762 49.2818C16.653 49.2758 16.56 49.395 16.5825 49.7153C16.6515 50.7255 17.2342 51.3203 18.2407 51.3668C18.8752 51.3953 19.2142 51.3045 20.3107 50.8043ZM17.9002 48.4088C18.2475 48.4088 18.5955 48.3953 18.942 48.4125C19.254 48.4275 19.3755 48.3398 19.3245 47.9978C19.2187 47.2733 18.756 46.7115 18.1545 46.6395C17.5267 46.566 16.9627 47.01 16.722 47.7653C16.524 48.3893 16.5352 48.4058 17.1697 48.4088C17.4127 48.4095 17.6565 48.4095 17.9002 48.4088Z" fill="white"/>
<path fill-rule="evenodd" clip-rule="evenodd" d="M43.7797 48.9952C43.7662 49.3785 43.7557 49.707 43.6837 50.0325C43.35 51.546 42.3637 52.3162 40.8105 52.266C39.3802 52.2187 38.4315 51.33 38.202 49.8405C38.1225 49.32 38.1157 48.8055 38.193 48.2827C38.4352 46.6545 39.4642 45.7485 41.0572 45.78C42.561 45.8107 43.6035 46.8307 43.752 48.423C43.7715 48.63 43.773 48.84 43.7797 48.9952ZM39.4717 49.0507C39.4552 49.599 39.5197 50.1645 39.8025 50.6835C40.0462 51.1312 40.4265 51.363 40.9432 51.3675C41.4817 51.3705 41.91 51.1492 42.1237 50.664C42.5917 49.5975 42.5947 48.5055 42.1305 47.4367C41.922 46.956 41.514 46.6882 40.977 46.683C40.4152 46.6762 40.029 46.971 39.7792 47.4555C39.528 47.946 39.4582 48.4747 39.4717 49.0507Z" fill="white"/>
<path fill-rule="evenodd" clip-rule="evenodd" d="M44.9235 49.3898C44.9228 48.606 44.9318 47.8223 44.9175 47.04C44.913 46.776 45.0113 46.6275 45.2408 46.5098C46.2218 46.0118 47.25 45.732 48.3555 45.7823C49.5555 45.837 50.1038 46.374 50.1233 47.5793C50.148 48.954 50.1203 50.3295 50.139 51.705C50.1443 52.0568 50.0228 52.1543 49.689 52.143C48.72 52.1153 48.8295 52.2608 48.822 51.2798C48.816 50.2343 48.831 49.1903 48.8175 48.1455C48.804 46.9605 48.3015 46.5848 47.1503 46.8743C46.2638 47.0963 46.248 47.1158 46.248 48.0203C46.248 49.2218 46.23 50.424 46.2578 51.624C46.2675 52.05 46.122 52.1925 45.7208 52.1408C45.5835 52.1243 45.441 52.1265 45.3038 52.14C45.0015 52.167 44.913 52.0245 44.9183 51.7395C44.931 50.9565 44.9235 50.172 44.9235 49.3898Z" fill="white"/>
<path fill-rule="evenodd" clip-rule="evenodd" d="M56.9632 46.0357C56.9827 46.0252 56.9977 46.0132 57.0127 46.011C58.245 45.8895 58.2465 45.8887 58.6492 47.046C58.9867 48.015 59.3205 48.9847 59.6587 49.953C59.715 50.1127 59.7847 50.2672 59.895 50.5417C60.3135 49.203 60.6937 47.9835 61.0747 46.764C61.3177 45.9855 61.617 45.8137 62.4262 45.9907C62.787 46.0695 62.5462 46.2892 62.5012 46.4212C61.7902 48.42 61.0687 50.4142 60.3457 52.4085C60.1845 52.8502 59.9812 53.274 59.715 53.664C59.3257 54.234 58.812 54.63 58.1167 54.738C57.9412 54.7665 57.6285 54.8917 57.6562 54.5422C57.6765 54.264 57.3892 53.8477 57.897 53.7142C58.287 53.6122 58.5855 53.4 58.8202 53.0775C59.1697 52.6012 59.2897 52.1452 59.0347 51.5362C58.359 49.9177 57.7605 48.2655 57.1357 46.6237C57.0645 46.434 56.9505 46.251 56.9632 46.0357Z" fill="white"/>
<path fill-rule="evenodd" clip-rule="evenodd" d="M85.02 51.7957C84.9952 51.9622 84.8797 52.0215 84.7912 52.1017C84.1215 52.7092 83.445 53.31 82.7827 53.9265C82.5795 54.1155 82.4482 54.1515 82.2427 53.9137C81.642 53.2125 81.0247 52.5277 80.3955 51.855C80.1817 51.6262 80.2275 51.4995 80.4427 51.3127C81.1117 50.7315 81.771 50.136 82.4175 49.5292C82.653 49.3072 82.8052 49.2727 83.037 49.545C83.6107 50.2207 84.2167 50.8702 84.8085 51.5317C84.8887 51.6202 84.9585 51.7185 85.02 51.7957Z" fill="white"/>
<path fill-rule="evenodd" clip-rule="evenodd" d="M80.8718 44.8597C81.0195 44.853 81.0668 44.9602 81.1343 45.0345C81.765 45.732 82.3875 46.4355 83.025 47.127C83.2012 47.319 83.22 47.4457 83.0092 47.631C82.3155 48.2392 81.6308 48.858 80.9573 49.4865C80.7405 49.689 80.6003 49.6755 80.4098 49.4565C79.803 48.7605 79.1813 48.0795 78.561 47.3955C78.4185 47.238 78.3323 47.1195 78.549 46.9297C79.2713 46.3012 79.9748 45.6525 80.6865 45.012C80.7495 44.9542 80.8185 44.9025 80.8718 44.8597Z" fill="white"/>
<path fill-rule="evenodd" clip-rule="evenodd" d="M78.8753 45.2685C78.7103 45.2535 78.651 45.135 78.573 45.0495C77.9663 44.3798 77.3753 43.6965 76.755 43.038C76.5203 42.7905 76.5803 42.6548 76.8068 42.456C77.4878 41.862 78.1568 41.2545 78.8183 40.6395C79.0103 40.4618 79.1363 40.437 79.3223 40.6508C79.9388 41.3573 80.574 42.0495 81.2018 42.7463C81.321 42.8805 81.4373 42.993 81.234 43.1723C80.4908 43.8278 79.761 44.4968 79.0245 45.1598C78.975 45.2048 78.915 45.24 78.8753 45.2685Z" fill="white"/>
<path fill-rule="evenodd" clip-rule="evenodd" d="M84.8895 43.6898C85.0215 43.6913 85.0837 43.7828 85.1527 43.8578C85.5952 44.346 86.0287 44.8425 86.4802 45.324C86.6557 45.5115 86.622 45.6375 86.445 45.7928C85.95 46.2285 85.458 46.668 84.9787 47.121C84.792 47.2973 84.6735 47.2733 84.5152 47.091C84.0832 46.5923 83.6362 46.107 83.1967 45.6165C83.0932 45.4995 82.965 45.3855 83.1442 45.2258C83.6872 44.7405 84.2272 44.2515 84.7702 43.7655C84.8062 43.7325 84.855 43.7115 84.8895 43.6898Z" fill="white"/>
<path fill-rule="evenodd" clip-rule="evenodd" d="M88.089 55.2607C88.023 55.2075 87.9495 55.1602 87.8932 55.098C87.4365 54.5955 86.9887 54.0855 86.5252 53.5913C86.3505 53.4038 86.3782 53.2762 86.5567 53.1195C87.0532 52.6837 87.5505 52.2487 88.0312 51.7942C88.218 51.6195 88.3312 51.6338 88.4925 51.8205C88.9237 52.3208 89.3722 52.806 89.8117 53.301C89.9152 53.4165 90.0337 53.532 89.8545 53.6917C89.31 54.1785 88.7722 54.6728 88.23 55.1625C88.1932 55.197 88.146 55.221 88.089 55.2607Z" fill="white"/>
<path fill-rule="evenodd" clip-rule="evenodd" d="M83.247 39.7275C83.2942 39.816 83.3265 39.9232 83.3947 39.9997C83.8207 40.4797 84.246 40.9597 84.687 41.4255C84.8752 41.625 84.858 41.7577 84.654 41.9325C84.1687 42.351 83.691 42.7815 83.226 43.2232C83.0227 43.416 82.8907 43.392 82.7167 43.1917C82.2982 42.705 81.8647 42.2317 81.4365 41.754C81.318 41.622 81.1845 41.5065 81.3892 41.3272C81.924 40.8585 82.4482 40.3777 82.9777 39.9037C83.0272 39.8595 83.0902 39.8295 83.247 39.7275Z" fill="white"/>
<path fill-rule="evenodd" clip-rule="evenodd" d="M88.2825 49.6507C88.2187 49.7227 88.1595 49.8052 88.086 49.872C87.5977 50.3145 87.1005 50.7487 86.619 51.198C86.4322 51.372 86.3167 51.3442 86.157 51.1582C85.7392 50.6715 85.305 50.199 84.8655 49.7302C84.6922 49.545 84.654 49.4062 84.8692 49.2202C85.368 48.789 85.854 48.3427 86.34 47.8987C86.4682 47.781 86.5852 47.6955 86.733 47.8612C87.219 48.4042 87.7065 48.9457 88.1902 49.491C88.224 49.5277 88.2412 49.578 88.2825 49.6507Z" fill="white"/>
<path fill-rule="evenodd" clip-rule="evenodd" d="M88.3125 45.6682C88.1145 45.624 88.0425 45.4717 87.9397 45.3607C87.0847 44.4255 87.102 44.442 88.008 43.5735C88.338 43.2577 88.497 43.3087 88.7723 43.6267C89.5815 44.5657 89.5958 44.5545 88.6553 45.3832C88.5398 45.4852 88.419 45.5797 88.3125 45.6682Z" fill="white"/>
<path fill-rule="evenodd" clip-rule="evenodd" d="M91.2015 48.3683C91.0297 48.5325 90.8827 48.678 90.7297 48.8167C89.9227 49.554 89.9227 49.5533 89.2117 48.7718C88.731 48.2415 88.731 48.2415 89.259 47.7593C90.048 47.0408 90.048 47.0408 90.756 47.844C90.9015 48.0098 91.0425 48.1808 91.2015 48.3683Z" fill="white"/>
<path fill-rule="evenodd" clip-rule="evenodd" d="M86.5507 41.952C86.466 41.8162 86.4007 41.6662 86.2965 41.5522C85.4392 40.6065 85.4482 40.6207 86.3722 39.7567C86.6595 39.4882 86.8215 39.4432 87.1057 39.7717C87.9435 40.74 87.9592 40.7265 86.9797 41.5965C86.8762 41.688 86.7682 41.7727 86.5507 41.952Z" fill="white"/>
</svg>
